<?xml version="1.0" encoding="utf-8"?>
<svg viewBox="0 0 500 500" xmlns="http://www.w3.org/2000/svg">
  <title>Grid</title>
  <path d="M204 240H68a36 36 0 01-36-36V68a36 36 0 0136-36h136a36 36 0 0136 36v136a36 36 0 01-36 36zM444 240H308a36 36 0 01-36-36V68a36 36 0 0136-36h136a36 36 0 0136 36v136a36 36 0 01-36 36zM204 480H68a36 36 0 01-36-36V308a36 36 0 0136-36h136a36 36 0 0136 36v136a36 36 0 01-36 36zM444 480H308a36 36 0 01-36-36V308a36 36 0 0136-36h136a36 36 0 0136 36v136a36 36 0 01-36 36z" transform="matrix(1, 0, 0, 1, -9.382523, 20.75278)" style="stroke: rgb(255, 255, 255); paint-order: fill; fill: rgb(255, 255, 255);"/>
</svg>